# xmcd
#
# Track frame offsets: 
#        150
#        11880
#        24079
#        37148
#        53366
#        68895
#        83216
#        98108
#        110401
#        123178
#        139700
#        151086
#        182439
#
# Disc length: 4440 seconds
#
# Revision: 0
# Processed by: cddbd v1.5PL3 Copyright (c) Steve Scherf et al.
# Submitted via: ExactAudioCopy v0.95a3
#
DISCID=9811560d
DTITLE=Sanne - Cowboy's Sweetheart
DYEAR=2003
DGENRE=Country
TTITLE0=Make Love To Me
TTITLE1=It Only Hurts For A Little While
TTITLE2=Cowboy's Sweetheart
TTITLE3=Boulder To Birmingham
TTITLE4=Jamais Assez Loin
TTITLE5=I Fall To Pieces
TTITLE6=Blues Run The Game
TTITLE7=Soulful Shade Of Blue
TTITLE8=Le Tourbillon
TTITLE9=Drunken Sailor - Dronken Zeeman
TTITLE10=Elimde Sise
TTITLE11=Big Ol' Train
TTITLE12=dummy
EXTD=
EXTT0=
EXTT1=
EXTT2=
EXTT3=
EXTT4=
EXTT5=
EXTT6=
EXTT7=
EXTT8=
EXTT9=
EXTT10=
EXTT11=
EXTT12=
PLAYORDER=
